<?xml version="1.0" encoding="UTF-8"?>
<svg id="_레이어_2" data-name="레이어 2" xmlns="http://www.w3.org/2000/svg" viewBox="0 0 555.88 172.45">
  <defs>
    <style>
      .cls-1 {
        fill: #fff;
      }
    </style>
  </defs>
  <g id="Logo_horizon_w">
    <g>
      <path class="cls-1" d="M17.8,137.07c0-17.72,10.39-31.51,26.09-36.28v-33.13c0-11.04-4.47-17.12-12.78-17.12s-13.9,6.82-13.9,18.11v37.34H0v35.87c0,16.89,13.69,30.58,30.58,30.58h10.69c-14.22-5.45-23.47-18.67-23.47-35.38ZM17.21,17.21v23.53c4.34-5.83,11.04-9.18,20.35-9.18,16.87,0,28.41,12.28,28.41,32.38v36.14c10.51,2.47,18.77,8.95,23.18,17.38V17.21H17.21ZM84.5,33.34l-13.95,8.06c-1.67.96-3.75-.24-3.75-2.17v-16.11c0-1.93,2.09-3.13,3.75-2.17l13.95,8.06c1.67.96,1.67,3.37,0,4.33ZM71.24,172.45h17.9v-15.78c-3.88,7.25-10.12,12.74-17.9,15.78ZM56.39,118.21c-10.3,0-17,7.94-17,18.86s6.7,18.86,17,18.86c6.82,0,11.91-3.47,13.9-8.68h18.87v-20.6h-19.24c-1.74-4.96-6.58-8.44-13.52-8.44ZM0,0v17.21h17.21V0H0Z"/>
      <g>
        <path class="cls-1" d="M158.21,58.36h-42.83v-14.28h13.62v-10.21h15.89v10.21h13.33v14.28ZM156.51,86.83c0,16.93-8.23,25.25-19.38,25.25s-19.38-8.32-19.38-25.25,8.23-25.25,19.38-25.25,19.38,8.32,19.38,25.25ZM142.42,86.83c0-7.47-2.17-11.54-5.29-11.54s-5.3,4.07-5.3,11.54,2.17,11.54,5.3,11.54,5.29-4.07,5.29-11.54ZM163.22,34.54h14.47v78.96h-14.47v-34.61h-6.81v-15.13h6.81v-29.22ZM197.83,34.16v80.75h-14.66V34.16h14.66Z"/>
        <path class="cls-1" d="M252.96,80.68v4.44h28.18v29.79h-72.24v-29.79h28.18v-4.44h-32.91v-12.29h81.7v12.29h-32.91ZM208.14,49.29c0-11.63,15.6-16.45,36.88-16.45s36.88,4.82,36.88,16.45-15.6,16.45-36.88,16.45-36.88-4.82-36.88-16.45ZM265.35,97.13h-40.66v5.77h40.66v-5.77ZM225.16,49.29c0,3.12,7.75,4.44,19.86,4.44s19.86-1.32,19.86-4.44-7.75-4.44-19.86-4.44-19.86,1.42-19.86,4.44Z"/>
        <path class="cls-1" d="M382.04,79.17v3.69h-79.81v-3.69h33.57v-12.1h3.97v12.1h42.27ZM371.55,59.03h-63.07v-3.59h63.07v-16.26h-63.07v-3.69h67.04v36.88h-3.97v-13.33ZM312.64,109.43h64.96v3.69h-68.93v-21.46h3.97v17.78Z"/>
        <path class="cls-1" d="M405.97,83.42h-13.62v-46.43h34.8v3.59h-30.83v17.49h27.71v3.59h-27.71v18.16h10.21c10.4,0,18.72-.76,24.96-3.22v3.69c-6.15,2.36-14.85,3.12-25.53,3.12ZM467.34,109.33v3.69h-70.45v-21.65h3.97v17.97h66.48ZM441.62,61.01h-13.05v-3.59h13.05v-22.69h3.97v60.23h-3.97v-33.95ZM464.5,96.38h-3.97v-62.22h3.97v62.22Z"/>
        <path class="cls-1" d="M555.47,106.49v3.69h-79.81v-3.69h79.81ZM477.84,85.5v-3.69c19.86-2.55,33.76-14.66,35.84-33h-33.47v-3.69h33.1v-12.01h3.97v12.01h33.66v3.69h-33.19c-.47,4.44-1.61,8.42-3.12,12.1l37.35,21.65-1.99,3.21-36.88-21.65c-6.62,12.1-19.2,19.38-35.27,21.37Z"/>
      </g>
      <g>
        <path class="cls-1" d="M139.34,132.21v25.54h-1.39v-12.42h-18.04v12.42h-1.39v-25.54h1.39v11.87h18.04v-11.87h1.39Z"/>
        <path class="cls-1" d="M155.31,132.21h17.43v1.29h-16.04v10.57h14.91v1.29h-14.91v11.09h16.33v1.29h-17.72v-25.54Z"/>
        <path class="cls-1" d="M187.31,132.21h1.39v14.81c0,6.01,3.52,10.02,9.31,10.02s9.31-4.01,9.31-10.02v-14.81h1.39v14.81c0,6.85-4.14,11.32-10.7,11.32s-10.7-4.46-10.7-11.32v-14.81Z"/>
        <path class="cls-1" d="M224.3,132.21h1.58l10.73,19.79,10.73-19.79h1.55v25.54h-1.39v-23.05l-10.12,18.66h-1.58l-10.12-18.66v23.05h-1.39v-25.54Z"/>
        <path class="cls-1" d="M282.56,144.98c0-7.7,5.53-13.32,13.13-13.32,6.27,0,10.7,3.52,12.29,8.79h-1.46c-1.49-4.56-5.3-7.5-10.83-7.5-6.82,0-11.74,5.01-11.74,12.03s4.98,12.03,11.77,12.03c5.69,0,9.73-3.14,11.06-7.86h1.46c-1.39,5.46-6.05,9.15-12.51,9.15-7.6,0-13.16-5.63-13.16-13.32Z"/>
        <path class="cls-1" d="M321.97,144.98c0-7.7,5.56-13.32,13.16-13.32s13.22,5.63,13.22,13.32-5.59,13.32-13.19,13.32-13.19-5.63-13.19-13.32ZM346.96,144.98c0-7.02-5.01-12.03-11.83-12.03s-11.77,5.01-11.77,12.03,5.01,12.03,11.8,12.03,11.8-5.04,11.8-12.03Z"/>
        <path class="cls-1" d="M363.25,132.21h1.75l17.75,23.73v-23.73h1.39v25.54h-1.75l-17.75-23.73v23.73h-1.39v-25.54Z"/>
        <path class="cls-1" d="M419.67,133.5h-9.86v24.25h-1.39v-24.25h-9.89v-1.29h21.15v1.29Z"/>
        <path class="cls-1" d="M434.06,132.21h17.43v1.29h-16.04v10.57h14.91v1.29h-14.91v11.09h16.33v1.29h-17.72v-25.54Z"/>
        <path class="cls-1" d="M466.45,132.21h1.75l17.75,23.73v-23.73h1.39v25.54h-1.75l-17.75-23.73v23.73h-1.39v-25.54Z"/>
        <path class="cls-1" d="M522.87,133.5h-9.86v24.25h-1.39v-24.25h-9.89v-1.29h21.15v1.29Z"/>
        <path class="cls-1" d="M555.79,138.74h-1.39c-.32-3.14-3.46-5.82-8.5-5.82s-8.02,2.17-8.02,5.11c0,3.17,2.65,4.69,8.44,5.98,6.63,1.49,9.57,3.49,9.57,7.31,0,4.3-4.4,6.98-10.02,6.98s-9.76-3.1-10.15-7.63h1.39c.36,3.65,3.69,6.34,8.79,6.34s8.6-2.3,8.6-5.56c0-3.46-2.81-4.85-9.15-6.34-5.95-1.39-8.86-3.27-8.86-7.08s3.85-6.4,9.41-6.4,9.57,2.97,9.89,7.11Z"/>
      </g>
    </g>
  </g>
</svg>